<mxfile host="app.diagrams.net" agent="Mozilla/5.0 (Windows NT 10.0; Win64; x64) AppleWebKit/537.36 (KHTML, like Gecko) Chrome/135.0.0.0 Safari/537.36 Edg/135.0.0.0" version="26.2.13">
  <diagram id="a45cf8ec-cd66-6f27-3ac3-be6e809c9e4a" name="Page-1">
    <mxGraphModel dx="2143" dy="1043" grid="1" gridSize="10" guides="1" tooltips="1" connect="1" arrows="1" fold="1" page="1" pageScale="1" pageWidth="827" pageHeight="1169" background="none" math="0" shadow="0">
      <root>
        <mxCell id="0" />
        <mxCell id="1" parent="0" />
        <mxCell id="3" value="" style="rounded=1;whiteSpace=wrap;html=1;shadow=0;strokeColor=none;fillColor=#BAC8D3;gradientColor=none;fontSize=18;fontColor=#F08705;opacity=40;fontStyle=0;strokeWidth=3;" parent="1" vertex="1">
          <mxGeometry x="215" y="70" width="1215" height="701" as="geometry" />
        </mxCell>
        <mxCell id="4" value="&lt;span&gt;1号大棚&lt;/span&gt;" style="rounded=1;whiteSpace=wrap;html=1;shadow=0;strokeColor=none;fillColor=#BAC8D3;gradientColor=none;fontSize=18;fontColor=#AE4132;verticalAlign=top;opacity=70;fontStyle=0;strokeWidth=3;" parent="1" vertex="1">
          <mxGeometry x="338" y="79" width="300" height="103" as="geometry" />
        </mxCell>
        <mxCell id="5" value="&lt;span style=&quot;line-height: 17.1818180084229px&quot;&gt;3&lt;/span&gt;号大棚" style="rounded=1;whiteSpace=wrap;html=1;shadow=0;strokeColor=none;fillColor=#BAC8D3;gradientColor=none;fontSize=18;fontColor=#AE4132;verticalAlign=top;fontStyle=0;opacity=70;strokeWidth=3;" parent="1" vertex="1">
          <mxGeometry x="373" y="269" width="300" height="105" as="geometry" />
        </mxCell>
        <mxCell id="6" value="&lt;span style=&quot;line-height: 17.1818180084229px&quot;&gt;5&lt;/span&gt;号大棚" style="rounded=1;whiteSpace=wrap;html=1;shadow=0;strokeColor=none;fillColor=#BAC8D3;gradientColor=none;fontSize=18;fontColor=#AE4132;verticalAlign=top;fontStyle=0;opacity=70;strokeWidth=3;" parent="1" vertex="1">
          <mxGeometry x="315" y="449" width="295" height="115" as="geometry" />
        </mxCell>
        <mxCell id="7" value="服务器" style="rounded=1;whiteSpace=wrap;html=1;shadow=0;strokeColor=none;fillColor=#BAC8D3;gradientColor=none;fontSize=18;fontColor=#AE4132;verticalAlign=top;fontStyle=0;opacity=70;strokeWidth=3;" parent="1" vertex="1">
          <mxGeometry x="630" y="439" width="270" height="120" as="geometry" />
        </mxCell>
        <mxCell id="9" value="&lt;span style=&quot;line-height: 17.1818180084229px&quot;&gt;4&lt;/span&gt;号大棚" style="rounded=1;whiteSpace=wrap;html=1;shadow=0;strokeColor=none;fillColor=#BAC8D3;gradientColor=none;fontSize=18;fontColor=#AE4132;verticalAlign=top;opacity=70;fontStyle=0;strokeWidth=3;" parent="1" vertex="1">
          <mxGeometry x="900" y="269" width="300" height="105" as="geometry" />
        </mxCell>
        <mxCell id="10" value="&lt;span style=&quot;line-height: 17.1818180084229px&quot;&gt;2&lt;/span&gt;号大棚" style="rounded=1;whiteSpace=wrap;html=1;shadow=0;strokeColor=none;fillColor=#BAC8D3;gradientColor=none;fontSize=18;fontColor=#AE4132;verticalAlign=top;opacity=70;fontStyle=0;strokeWidth=3;" parent="1" vertex="1">
          <mxGeometry x="900" y="79" width="300" height="108" as="geometry" />
        </mxCell>
        <mxCell id="13" value="外部客户访问" style="rounded=1;whiteSpace=wrap;html=1;shadow=0;strokeColor=none;fillColor=#BAC8D3;gradientColor=none;fontSize=18;fontColor=#AE4132;verticalAlign=bottom;fontStyle=0;opacity=40;strokeWidth=3;" parent="1" vertex="1">
          <mxGeometry x="770" y="913" width="294" height="207" as="geometry" />
        </mxCell>
        <mxCell id="15" value="WiFi访问" style="rounded=1;whiteSpace=wrap;html=1;shadow=0;strokeColor=none;fillColor=#BAC8D3;gradientColor=none;fontSize=18;fontColor=#AE4132;verticalAlign=bottom;fontStyle=0;opacity=40;strokeWidth=3;" parent="1" vertex="1">
          <mxGeometry x="243" y="809" width="440" height="171" as="geometry" />
        </mxCell>
        <mxCell id="16" value="台式机 访问" style="rounded=1;whiteSpace=wrap;html=1;shadow=0;strokeColor=none;fillColor=#BAC8D3;gradientColor=none;fontSize=18;fontColor=#AE4132;verticalAlign=bottom;fontStyle=0;opacity=40;strokeWidth=3;" parent="1" vertex="1">
          <mxGeometry x="22" y="488" width="115" height="542" as="geometry" />
        </mxCell>
        <mxCell id="17" value="物联网" style="ellipse;shape=cloud;whiteSpace=wrap;html=1;shadow=0;strokeColor=#23445D;fillColor=#BAC8D3;gradientColor=none;fontSize=18;fontColor=#23445D;gradientDirection=north;fontStyle=0;strokeWidth=2;" parent="1" vertex="1">
          <mxGeometry x="1480" y="118" width="120" height="80" as="geometry" />
        </mxCell>
        <mxCell id="18" value="物联网" style="ellipse;shape=cloud;whiteSpace=wrap;html=1;shadow=0;strokeColor=#23445D;fillColor=#BAC8D3;gradientColor=none;fontSize=18;fontColor=#23445D;gradientDirection=north;fontStyle=0;strokeWidth=2;" parent="1" vertex="1">
          <mxGeometry x="1480" y="220" width="120" height="80" as="geometry" />
        </mxCell>
        <mxCell id="19" value="Internet" style="ellipse;shape=cloud;whiteSpace=wrap;html=1;shadow=0;strokeColor=#23445D;fillColor=#BAC8D3;gradientColor=none;fontSize=18;fontColor=#23445D;gradientDirection=north;fontStyle=0;strokeWidth=2;" parent="1" vertex="1">
          <mxGeometry x="970" y="790" width="120" height="80" as="geometry" />
        </mxCell>
        <mxCell id="20" value="" style="strokeWidth=2;strokeColor=#666666;dashed=0;align=center;html=1;fontSize=8;shape=mxgraph.eip.messageChannel;shadow=0;fillColor=#FFFFFF;gradientColor=none;fontColor=#F08705;fontStyle=0" parent="1" vertex="1">
          <mxGeometry x="360" y="230" width="440" height="20" as="geometry" />
        </mxCell>
        <mxCell id="21" value="" style="edgeStyle=elbowEdgeStyle;strokeWidth=2;rounded=0;endArrow=none;startArrow=none;startSize=10;endSize=10;dashed=0;html=1;strokeColor=#23445D;fontSize=18;fontColor=#F08705;startFill=0;endFill=0;fontStyle=0" parent="1" target="20" edge="1">
          <mxGeometry relative="1" as="geometry">
            <mxPoint x="540" y="177" as="sourcePoint" />
            <mxPoint x="540" y="230" as="targetPoint" />
            <Array as="points">
              <mxPoint x="540" y="150" />
            </Array>
          </mxGeometry>
        </mxCell>
        <mxCell id="40" value="" style="image;html=1;image=img/lib/clip_art/computers/Server_Rack_128x128.png;shadow=0;strokeColor=#000000;fillColor=#FFFFFF;gradientColor=none;fontSize=18;fontColor=#F08705;fontStyle=0" parent="1" vertex="1">
          <mxGeometry x="720" y="474" width="80" height="80" as="geometry" />
        </mxCell>
        <mxCell id="45" value="" style="strokeWidth=2;strokeColor=#666666;dashed=0;align=center;html=1;fontSize=8;shape=mxgraph.eip.messageChannel;shadow=0;fillColor=#FFFFFF;gradientColor=none;fontColor=#F08705;fontStyle=0" parent="1" vertex="1">
          <mxGeometry x="918" y="229" width="422" height="20" as="geometry" />
        </mxCell>
        <mxCell id="46" value="" style="strokeWidth=2;strokeColor=#666666;dashed=0;align=center;html=1;fontSize=8;shape=mxgraph.eip.messageChannel;shadow=0;fillColor=#FFFFFF;gradientColor=none;fontColor=#F08705;fontStyle=0" parent="1" vertex="1">
          <mxGeometry x="350" y="399" width="440" height="20" as="geometry" />
        </mxCell>
        <mxCell id="47" value="" style="strokeWidth=2;strokeColor=#666666;dashed=0;align=center;html=1;fontSize=8;shape=mxgraph.eip.messageChannel;shadow=0;fillColor=#FFFFFF;gradientColor=none;fontColor=#F08705;fontStyle=0" parent="1" vertex="1">
          <mxGeometry x="918" y="399" width="412" height="20" as="geometry" />
        </mxCell>
        <mxCell id="48" value="" style="strokeWidth=2;strokeColor=#666666;dashed=0;align=center;html=1;fontSize=8;shape=mxgraph.eip.messageChannel;shadow=0;fillColor=#FFFFFF;gradientColor=none;fontColor=#F08705;fontStyle=0" parent="1" vertex="1">
          <mxGeometry x="230" y="594" width="1090" height="20" as="geometry" />
        </mxCell>
        <mxCell id="49" value="物联网" style="ellipse;shape=cloud;whiteSpace=wrap;html=1;shadow=0;strokeColor=#23445D;fillColor=#BAC8D3;gradientColor=none;fontSize=18;fontColor=#23445D;fontStyle=0;gradientDirection=north;strokeWidth=2;" parent="1" vertex="1">
          <mxGeometry x="50" y="97" width="120" height="80" as="geometry" />
        </mxCell>
        <mxCell id="50" value="物联网" style="ellipse;shape=cloud;whiteSpace=wrap;html=1;shadow=0;strokeColor=#23445D;fillColor=#BAC8D3;gradientColor=none;fontSize=18;fontColor=#23445D;fontStyle=0;gradientDirection=north;strokeWidth=2;" parent="1" vertex="1">
          <mxGeometry x="50" y="229" width="120" height="80" as="geometry" />
        </mxCell>
        <mxCell id="53" value="" style="image;html=1;image=img/lib/clip_art/networking/Router_128x128.png;shadow=0;strokeColor=#000000;fillColor=#FFFFFF;gradientColor=none;fontSize=18;fontColor=#F08705;fontStyle=0" parent="1" vertex="1">
          <mxGeometry x="660" y="679" width="80" height="80" as="geometry" />
        </mxCell>
        <mxCell id="55" value="" style="image;html=1;image=img/lib/clip_art/networking/Wireless_Router_128x128.png;shadow=0;strokeColor=#000000;fillColor=#FFFFFF;gradientColor=none;fontSize=18;fontColor=#F08705;fontStyle=0" parent="1" vertex="1">
          <mxGeometry x="400" y="679" width="80" height="80" as="geometry" />
        </mxCell>
        <mxCell id="57" value="" style="image;html=1;image=img/lib/clip_art/networking/Wireless_Router_128x128.png;shadow=0;strokeColor=#000000;fillColor=#FFFFFF;gradientColor=none;fontSize=18;fontColor=#F08705;fontStyle=0" parent="1" vertex="1">
          <mxGeometry x="573" y="815" width="80" height="80" as="geometry" />
        </mxCell>
        <mxCell id="58" style="edgeStyle=orthogonalEdgeStyle;rounded=0;html=1;fontSize=18;fontColor=#F08705;endArrow=none;endFill=0;strokeColor=#23445D;strokeWidth=2;curved=1;fontStyle=0" parent="1" source="53" target="57" edge="1">
          <mxGeometry relative="1" as="geometry" />
        </mxCell>
        <mxCell id="59" value="" style="image;html=1;image=img/lib/clip_art/computers/Netbook_128x128.png;shadow=0;strokeColor=#000000;fillColor=#FFFFFF;gradientColor=none;fontSize=18;fontColor=#F08705;fontStyle=0" parent="1" vertex="1">
          <mxGeometry x="258" y="815" width="80" height="80" as="geometry" />
        </mxCell>
        <mxCell id="60" value="" style="image;html=1;image=img/lib/clip_art/computers/Netbook_128x128.png;shadow=0;strokeColor=#000000;fillColor=#FFFFFF;gradientColor=none;fontSize=18;fontColor=#F08705;fontStyle=0" parent="1" vertex="1">
          <mxGeometry x="348" y="815" width="80" height="80" as="geometry" />
        </mxCell>
        <mxCell id="61" value="" style="image;html=1;image=img/lib/clip_art/computers/Netbook_128x128.png;shadow=0;strokeColor=#000000;fillColor=#FFFFFF;gradientColor=none;fontSize=18;fontColor=#F08705;fontStyle=0" parent="1" vertex="1">
          <mxGeometry x="448" y="815" width="80" height="80" as="geometry" />
        </mxCell>
        <mxCell id="62" value="" style="strokeWidth=2;strokeColor=#666666;dashed=0;align=center;html=1;fontSize=8;shape=mxgraph.eip.messageChannel;shadow=0;fillColor=#FFFFFF;gradientColor=none;fontColor=#F08705;fontStyle=0" parent="1" vertex="1">
          <mxGeometry x="258" y="925" width="415" height="20" as="geometry" />
        </mxCell>
        <mxCell id="80" value="" style="image;html=1;image=img/lib/clip_art/computers/Workstation_128x128.png;shadow=0;strokeColor=#000000;fillColor=#FFFFFF;gradientColor=none;fontSize=18;fontColor=#F08705;fontStyle=0" parent="1" vertex="1">
          <mxGeometry x="50" y="599" width="80" height="80" as="geometry" />
        </mxCell>
        <mxCell id="81" value="" style="image;html=1;image=img/lib/clip_art/computers/Workstation_128x128.png;shadow=0;strokeColor=#000000;fillColor=#FFFFFF;gradientColor=none;fontSize=18;fontColor=#F08705;fontStyle=0" parent="1" vertex="1">
          <mxGeometry x="50" y="693" width="80" height="80" as="geometry" />
        </mxCell>
        <mxCell id="82" value="" style="image;html=1;image=img/lib/clip_art/networking/Firewall_128x128.png;shadow=0;strokeColor=#000000;fillColor=#FFFFFF;gradientColor=none;fontSize=18;fontColor=#F08705;fontStyle=0" parent="1" vertex="1">
          <mxGeometry x="1005" y="679" width="80" height="80" as="geometry" />
        </mxCell>
        <mxCell id="87" value="" style="edgeStyle=elbowEdgeStyle;strokeWidth=2;rounded=0;endArrow=none;startArrow=none;startSize=10;endSize=10;dashed=0;html=1;strokeColor=#23445D;fontSize=18;fontColor=#F08705;startFill=0;endFill=0;fontStyle=0" parent="1" target="45" edge="1">
          <mxGeometry relative="1" as="geometry">
            <mxPoint x="960" y="177" as="sourcePoint" />
            <mxPoint x="910" y="222" as="targetPoint" />
            <Array as="points">
              <mxPoint x="960" y="150" />
            </Array>
          </mxGeometry>
        </mxCell>
        <mxCell id="92" value="" style="edgeStyle=elbowEdgeStyle;strokeWidth=2;rounded=0;endArrow=none;startArrow=none;startSize=10;endSize=10;dashed=0;html=1;strokeColor=#23445D;fontSize=18;fontColor=#F08705;startFill=0;endFill=0;fontStyle=0;exitX=0.369;exitY=0.66;exitDx=0;exitDy=0;exitPerimeter=0;" parent="1" source="voTqLmx-ShP74qZ-SAfc-175" edge="1">
          <mxGeometry relative="1" as="geometry">
            <mxPoint x="630" y="369" as="sourcePoint" />
            <mxPoint x="630" y="399" as="targetPoint" />
          </mxGeometry>
        </mxCell>
        <mxCell id="96" value="" style="edgeStyle=elbowEdgeStyle;strokeWidth=2;rounded=0;endArrow=none;startArrow=none;startSize=10;endSize=10;dashed=0;html=1;strokeColor=#23445D;fontSize=18;fontColor=#F08705;startFill=0;endFill=0;fontStyle=0" parent="1" target="48" edge="1">
          <mxGeometry relative="1" as="geometry">
            <mxPoint x="560" y="554" as="sourcePoint" />
            <mxPoint x="310" y="614" as="targetPoint" />
            <Array as="points">
              <mxPoint x="560" y="530" />
            </Array>
          </mxGeometry>
        </mxCell>
        <mxCell id="98" value="" style="edgeStyle=elbowEdgeStyle;strokeWidth=2;rounded=0;endArrow=none;startArrow=none;startSize=10;endSize=10;dashed=0;html=1;strokeColor=#23445D;fontSize=18;fontColor=#F08705;startFill=0;endFill=0;fontStyle=0" parent="1" source="40" target="48" edge="1">
          <mxGeometry relative="1" as="geometry">
            <mxPoint x="500" y="574" as="sourcePoint" />
            <mxPoint x="500" y="614" as="targetPoint" />
          </mxGeometry>
        </mxCell>
        <mxCell id="103" value="" style="edgeStyle=elbowEdgeStyle;strokeWidth=2;rounded=0;endArrow=none;startArrow=none;startSize=10;endSize=10;dashed=0;html=1;strokeColor=#23445D;fontSize=18;fontColor=#F08705;startFill=0;endFill=0;fontStyle=0" parent="1" source="82" target="48" edge="1">
          <mxGeometry relative="1" as="geometry">
            <mxPoint x="775" y="604" as="sourcePoint" />
            <mxPoint x="775" y="644" as="targetPoint" />
          </mxGeometry>
        </mxCell>
        <mxCell id="104" value="" style="edgeStyle=elbowEdgeStyle;strokeWidth=2;rounded=0;endArrow=none;startArrow=none;startSize=10;endSize=10;dashed=0;html=1;strokeColor=#23445D;fontSize=18;fontColor=#F08705;startFill=0;endFill=0;fontStyle=0;exitX=0.443;exitY=1.014;exitDx=0;exitDy=0;exitPerimeter=0;" parent="1" source="voTqLmx-ShP74qZ-SAfc-174" target="47" edge="1">
          <mxGeometry relative="1" as="geometry">
            <mxPoint x="960" y="369" as="sourcePoint" />
            <mxPoint x="785" y="654" as="targetPoint" />
          </mxGeometry>
        </mxCell>
        <mxCell id="108" style="edgeStyle=none;rounded=0;html=1;startArrow=none;startFill=0;endArrow=none;endFill=0;fontSize=18;fontColor=#F08705;strokeColor=#23445D;strokeWidth=2;fontStyle=0;exitX=1;exitY=0.5;exitDx=0;exitDy=0;" parent="1" source="10" target="17" edge="1">
          <mxGeometry relative="1" as="geometry">
            <mxPoint x="1320" y="157.20000000000027" as="sourcePoint" />
          </mxGeometry>
        </mxCell>
        <mxCell id="109" style="edgeStyle=orthogonalEdgeStyle;rounded=0;html=1;startArrow=none;startFill=0;endArrow=none;endFill=0;fontSize=18;fontColor=#F08705;strokeColor=#23445D;strokeWidth=2;curved=1;fontStyle=0;exitX=1;exitY=0.5;exitDx=0;exitDy=0;" parent="1" source="9" target="18" edge="1">
          <mxGeometry relative="1" as="geometry">
            <Array as="points">
              <mxPoint x="1404" y="322" />
              <mxPoint x="1404" y="260" />
            </Array>
            <mxPoint x="1330" y="320.9999999999998" as="sourcePoint" />
          </mxGeometry>
        </mxCell>
        <mxCell id="110" style="edgeStyle=none;rounded=0;html=1;startArrow=none;startFill=0;endArrow=none;endFill=0;fontSize=18;fontColor=#F08705;strokeColor=#23445D;strokeWidth=2;fontStyle=0" parent="1" source="82" target="19" edge="1">
          <mxGeometry relative="1" as="geometry" />
        </mxCell>
        <mxCell id="111" value="" style="image;html=1;image=img/lib/clip_art/computers/Laptop_128x128.png;shadow=0;strokeColor=#000000;fillColor=#FFFFFF;gradientColor=none;fontSize=18;fontColor=#F08705;fontStyle=0" parent="1" vertex="1">
          <mxGeometry x="795" y="930" width="80" height="80" as="geometry" />
        </mxCell>
        <mxCell id="112" value="" style="image;html=1;image=img/lib/clip_art/computers/Laptop_128x128.png;shadow=0;strokeColor=#000000;fillColor=#FFFFFF;gradientColor=none;fontSize=18;fontColor=#F08705;fontStyle=0" parent="1" vertex="1">
          <mxGeometry x="875" y="930" width="80" height="80" as="geometry" />
        </mxCell>
        <mxCell id="113" value="" style="image;html=1;image=img/lib/clip_art/computers/Laptop_128x128.png;shadow=0;strokeColor=#000000;fillColor=#FFFFFF;gradientColor=none;fontSize=18;fontColor=#F08705;fontStyle=0" parent="1" vertex="1">
          <mxGeometry x="885" y="1010" width="80" height="80" as="geometry" />
        </mxCell>
        <mxCell id="114" value="" style="image;html=1;image=img/lib/clip_art/computers/Laptop_128x128.png;shadow=0;strokeColor=#000000;fillColor=#FFFFFF;gradientColor=none;fontSize=18;fontColor=#F08705;fontStyle=0" parent="1" vertex="1">
          <mxGeometry x="980" y="991" width="80" height="80" as="geometry" />
        </mxCell>
        <mxCell id="115" style="edgeStyle=orthogonalEdgeStyle;rounded=0;html=1;startArrow=none;startFill=0;endArrow=none;endFill=0;fontSize=18;fontColor=#F08705;strokeColor=#23445D;strokeWidth=2;curved=1;fontStyle=0" parent="1" target="49" edge="1">
          <mxGeometry relative="1" as="geometry">
            <mxPoint x="338" y="137" as="sourcePoint" />
          </mxGeometry>
        </mxCell>
        <mxCell id="116" style="edgeStyle=orthogonalEdgeStyle;rounded=0;html=1;startArrow=none;startFill=0;endArrow=none;endFill=0;fontSize=18;fontColor=#F08705;strokeColor=#23445D;strokeWidth=2;curved=1;fontStyle=0" parent="1" target="50" edge="1">
          <mxGeometry relative="1" as="geometry">
            <mxPoint x="378" y="329" as="sourcePoint" />
          </mxGeometry>
        </mxCell>
        <mxCell id="117" style="edgeStyle=orthogonalEdgeStyle;rounded=0;html=1;startArrow=none;startFill=0;endArrow=none;endFill=0;fontSize=18;fontColor=#F08705;strokeColor=#23445D;strokeWidth=2;curved=1;fontStyle=0" parent="1" source="55" edge="1">
          <mxGeometry relative="1" as="geometry">
            <Array as="points">
              <mxPoint x="210" y="680" />
              <mxPoint x="210" y="543" />
            </Array>
            <mxPoint x="120" y="543.0000000000002" as="targetPoint" />
          </mxGeometry>
        </mxCell>
        <mxCell id="118" style="edgeStyle=orthogonalEdgeStyle;rounded=0;html=1;startArrow=none;startFill=0;endArrow=none;endFill=0;fontSize=18;fontColor=#F08705;strokeColor=#23445D;strokeWidth=2;curved=1;fontStyle=0" parent="1" source="55" target="80" edge="1">
          <mxGeometry relative="1" as="geometry">
            <Array as="points">
              <mxPoint x="200" y="680" />
              <mxPoint x="200" y="639" />
            </Array>
          </mxGeometry>
        </mxCell>
        <mxCell id="119" style="edgeStyle=orthogonalEdgeStyle;rounded=0;html=1;startArrow=none;startFill=0;endArrow=none;endFill=0;fontSize=18;fontColor=#F08705;strokeColor=#23445D;strokeWidth=2;curved=1;fontStyle=0" parent="1" source="55" target="81" edge="1">
          <mxGeometry relative="1" as="geometry">
            <Array as="points">
              <mxPoint x="210" y="680" />
              <mxPoint x="210" y="733" />
            </Array>
          </mxGeometry>
        </mxCell>
        <mxCell id="120" value="" style="edgeStyle=elbowEdgeStyle;strokeWidth=2;rounded=0;endArrow=none;startArrow=none;startSize=10;endSize=10;dashed=0;html=1;strokeColor=#23445D;fontSize=18;fontColor=#F08705;startFill=0;endFill=0;fontStyle=0" parent="1" source="48" target="53" edge="1">
          <mxGeometry relative="1" as="geometry">
            <mxPoint x="489.7619047619048" y="564.4761904761906" as="sourcePoint" />
            <mxPoint x="489.7619047619048" y="603.7619047619048" as="targetPoint" />
          </mxGeometry>
        </mxCell>
        <mxCell id="122" style="edgeStyle=orthogonalEdgeStyle;rounded=0;html=1;startArrow=none;startFill=0;endArrow=none;endFill=0;fontSize=18;fontColor=#F08705;strokeColor=#23445D;strokeWidth=2;curved=1;fontStyle=0" parent="1" source="114" target="19" edge="1">
          <mxGeometry relative="1" as="geometry">
            <Array as="points">
              <mxPoint x="1030" y="980" />
              <mxPoint x="1030" y="980" />
            </Array>
          </mxGeometry>
        </mxCell>
        <mxCell id="123" style="edgeStyle=orthogonalEdgeStyle;rounded=0;html=1;startArrow=none;startFill=0;endArrow=none;endFill=0;fontSize=18;fontColor=#F08705;strokeColor=#23445D;strokeWidth=2;curved=1;fontStyle=0" parent="1" source="113" target="19" edge="1">
          <mxGeometry relative="1" as="geometry">
            <Array as="points">
              <mxPoint x="970" y="1050" />
              <mxPoint x="970" y="940" />
              <mxPoint x="1030" y="940" />
            </Array>
          </mxGeometry>
        </mxCell>
        <mxCell id="124" style="edgeStyle=orthogonalEdgeStyle;rounded=0;html=1;startArrow=none;startFill=0;endArrow=none;endFill=0;fontSize=18;fontColor=#F08705;strokeColor=#23445D;strokeWidth=2;curved=1;fontStyle=0" parent="1" source="112" target="19" edge="1">
          <mxGeometry relative="1" as="geometry">
            <Array as="points">
              <mxPoint x="915" y="850" />
            </Array>
          </mxGeometry>
        </mxCell>
        <mxCell id="125" style="edgeStyle=orthogonalEdgeStyle;rounded=0;html=1;startArrow=none;startFill=0;endArrow=none;endFill=0;fontSize=18;fontColor=#F08705;strokeColor=#23445D;strokeWidth=2;curved=1;fontStyle=0" parent="1" source="111" target="19" edge="1">
          <mxGeometry relative="1" as="geometry">
            <Array as="points">
              <mxPoint x="835" y="830" />
            </Array>
          </mxGeometry>
        </mxCell>
        <mxCell id="143" value="" style="edgeStyle=elbowEdgeStyle;strokeWidth=2;rounded=0;endArrow=none;startArrow=none;startSize=10;endSize=10;dashed=0;html=1;strokeColor=#23445D;fontSize=18;fontColor=#F08705;startFill=0;endFill=0;fontStyle=0" parent="1" source="59" target="62" edge="1">
          <mxGeometry relative="1" as="geometry">
            <mxPoint x="443.08264462809916" y="463.87603305785115" as="sourcePoint" />
            <mxPoint x="443.08264462809916" y="504.37190082644634" as="targetPoint" />
          </mxGeometry>
        </mxCell>
        <mxCell id="144" value="" style="edgeStyle=elbowEdgeStyle;strokeWidth=2;rounded=0;endArrow=none;startArrow=none;startSize=10;endSize=10;dashed=0;html=1;strokeColor=#23445D;fontSize=18;fontColor=#F08705;startFill=0;endFill=0;fontStyle=0" parent="1" source="60" target="62" edge="1">
          <mxGeometry relative="1" as="geometry">
            <mxPoint x="308.37190082644634" y="905.1983471074379" as="sourcePoint" />
            <mxPoint x="308.37190082644634" y="934.9504132231405" as="targetPoint" />
          </mxGeometry>
        </mxCell>
        <mxCell id="145" value="" style="edgeStyle=elbowEdgeStyle;strokeWidth=2;rounded=0;endArrow=none;startArrow=none;startSize=10;endSize=10;dashed=0;html=1;strokeColor=#23445D;fontSize=18;fontColor=#F08705;startFill=0;endFill=0;fontStyle=0" parent="1" source="61" target="62" edge="1">
          <mxGeometry relative="1" as="geometry">
            <mxPoint x="397.62809917355366" y="905.1983471074379" as="sourcePoint" />
            <mxPoint x="397.62809917355366" y="934.9504132231405" as="targetPoint" />
          </mxGeometry>
        </mxCell>
        <mxCell id="146" value="" style="edgeStyle=elbowEdgeStyle;strokeWidth=2;rounded=0;endArrow=none;startArrow=none;startSize=10;endSize=10;dashed=0;html=1;strokeColor=#23445D;fontSize=18;fontColor=#F08705;startFill=0;endFill=0;fontStyle=0" parent="1" source="57" target="62" edge="1">
          <mxGeometry relative="1" as="geometry">
            <mxPoint x="407.62809917355366" y="915.1983471074379" as="sourcePoint" />
            <mxPoint x="407.62809917355366" y="944.9504132231405" as="targetPoint" />
          </mxGeometry>
        </mxCell>
        <mxCell id="153" value="" style="edgeStyle=elbowEdgeStyle;strokeWidth=2;rounded=0;endArrow=none;startArrow=none;startSize=10;endSize=10;dashed=0;html=1;strokeColor=#23445D;fontSize=18;fontColor=#F08705;startFill=0;endFill=0;fontStyle=0" parent="1" source="48" target="55" edge="1">
          <mxGeometry relative="1" as="geometry">
            <mxPoint x="490.4878048780488" y="563.6341463414635" as="sourcePoint" />
            <mxPoint x="490.4878048780488" y="603.8780487804879" as="targetPoint" />
          </mxGeometry>
        </mxCell>
        <mxCell id="156" value="" style="image;html=1;image=img/lib/clip_art/computers/Workstation_128x128.png;shadow=0;strokeColor=#000000;fillColor=#FFFFFF;gradientColor=none;fontSize=18;fontColor=#F08705;fontStyle=0" parent="1" vertex="1">
          <mxGeometry x="50" y="799" width="80" height="80" as="geometry" />
        </mxCell>
        <mxCell id="157" value="" style="image;html=1;image=img/lib/clip_art/computers/Workstation_128x128.png;shadow=0;strokeColor=#000000;fillColor=#FFFFFF;gradientColor=none;fontSize=18;fontColor=#F08705;fontStyle=0" parent="1" vertex="1">
          <mxGeometry x="50" y="901" width="80" height="80" as="geometry" />
        </mxCell>
        <mxCell id="158" style="edgeStyle=orthogonalEdgeStyle;rounded=0;html=1;startArrow=none;startFill=0;endArrow=none;endFill=0;fontSize=18;fontColor=#F08705;strokeColor=#23445D;strokeWidth=2;curved=1;fontStyle=0" parent="1" source="156" target="55" edge="1">
          <mxGeometry relative="1" as="geometry">
            <Array as="points">
              <mxPoint x="220" y="839" />
              <mxPoint x="220" y="680" />
            </Array>
          </mxGeometry>
        </mxCell>
        <mxCell id="159" style="edgeStyle=orthogonalEdgeStyle;rounded=0;html=1;startArrow=none;startFill=0;endArrow=none;endFill=0;fontSize=18;fontColor=#F08705;strokeColor=#23445D;strokeWidth=2;curved=1;fontStyle=0" parent="1" source="157" target="55" edge="1">
          <mxGeometry relative="1" as="geometry">
            <Array as="points">
              <mxPoint x="230" y="941" />
              <mxPoint x="230" y="680" />
            </Array>
          </mxGeometry>
        </mxCell>
        <mxCell id="160" value="" style="image;html=1;image=img/lib/clip_art/networking/UPS_128x128.png;shadow=0;strokeColor=#000000;fillColor=#F2F2F2;gradientColor=none;fontSize=18;fontColor=#F08705;fontStyle=0" parent="1" vertex="1">
          <mxGeometry x="1220" y="659" width="80" height="80" as="geometry" />
        </mxCell>
        <mxCell id="166" value="" style="edgeStyle=elbowEdgeStyle;strokeWidth=2;rounded=0;endArrow=none;startArrow=none;startSize=10;endSize=10;dashed=0;html=1;strokeColor=#23445D;fontSize=18;fontColor=#F08705;startFill=0;endFill=0;fontStyle=0" parent="1" source="48" target="160" edge="1">
          <mxGeometry relative="1" as="geometry">
            <mxPoint x="1164.8780487804877" y="573.390243902439" as="sourcePoint" />
            <mxPoint x="1164.8780487804877" y="603.8780487804878" as="targetPoint" />
          </mxGeometry>
        </mxCell>
        <mxCell id="167" value="劳伦丰网络&lt;div&gt;结构图&lt;/div&gt;" style="text;html=1;strokeColor=none;fillColor=none;align=center;verticalAlign=middle;whiteSpace=wrap;overflow=hidden;shadow=0;fontSize=36;fontColor=#AE4132;fontStyle=0" parent="1" vertex="1">
          <mxGeometry x="750" y="649" width="240" height="110" as="geometry" />
        </mxCell>
        <mxCell id="171" style="edgeStyle=orthogonalEdgeStyle;rounded=0;jumpStyle=none;html=1;exitX=0;exitY=0.5;entryX=0;entryY=0.5;shadow=0;labelBackgroundColor=none;startArrow=none;startFill=0;endArrow=classic;endFill=1;endSize=6;jettySize=auto;orthogonalLoop=1;strokeColor=#23445D;strokeWidth=2;fillColor=#F08705;fontFamily=Helvetica;fontSize=14;fontColor=#F08705;align=left;fontStyle=0" parent="1" edge="1">
          <mxGeometry relative="1" as="geometry">
            <mxPoint x="136.99999999999955" y="37.5" as="sourcePoint" />
            <mxPoint x="136.99999999999955" y="37.5" as="targetPoint" />
          </mxGeometry>
        </mxCell>
        <mxCell id="172" style="edgeStyle=orthogonalEdgeStyle;rounded=0;jumpStyle=none;html=1;exitX=0.75;exitY=0;entryX=0.75;entryY=0;shadow=0;labelBackgroundColor=none;startArrow=none;startFill=0;endArrow=classic;endFill=1;endSize=6;jettySize=auto;orthogonalLoop=1;strokeColor=#23445D;strokeWidth=2;fillColor=#F08705;fontFamily=Helvetica;fontSize=14;fontColor=#FFFFFF;align=left;fontStyle=0" parent="1" edge="1">
          <mxGeometry relative="1" as="geometry">
            <mxPoint x="980" y="97" as="sourcePoint" />
            <mxPoint x="980" y="97" as="targetPoint" />
          </mxGeometry>
        </mxCell>
        <mxCell id="voTqLmx-ShP74qZ-SAfc-172" value="" style="verticalLabelPosition=bottom;sketch=0;html=1;fillColor=#282828;strokeColor=none;verticalAlign=top;pointerEvents=1;align=center;shape=mxgraph.cisco_safe.technology_icons.icon10;" vertex="1" parent="1">
          <mxGeometry x="523" y="121" width="50" height="41" as="geometry" />
        </mxCell>
        <mxCell id="voTqLmx-ShP74qZ-SAfc-173" value="" style="verticalLabelPosition=bottom;sketch=0;html=1;fillColor=#282828;strokeColor=none;verticalAlign=top;pointerEvents=1;align=center;shape=mxgraph.cisco_safe.technology_icons.icon10;" vertex="1" parent="1">
          <mxGeometry x="940" y="116.5" width="50" height="41" as="geometry" />
        </mxCell>
        <mxCell id="voTqLmx-ShP74qZ-SAfc-174" value="" style="verticalLabelPosition=bottom;sketch=0;html=1;fillColor=#282828;strokeColor=none;verticalAlign=top;pointerEvents=1;align=center;shape=mxgraph.cisco_safe.technology_icons.icon10;" vertex="1" parent="1">
          <mxGeometry x="940" y="301" width="50" height="41" as="geometry" />
        </mxCell>
        <mxCell id="voTqLmx-ShP74qZ-SAfc-175" value="" style="verticalLabelPosition=bottom;sketch=0;html=1;fillColor=#282828;strokeColor=none;verticalAlign=top;pointerEvents=1;align=center;shape=mxgraph.cisco_safe.technology_icons.icon10;" vertex="1" parent="1">
          <mxGeometry x="610" y="315.5" width="50" height="41" as="geometry" />
        </mxCell>
        <mxCell id="voTqLmx-ShP74qZ-SAfc-177" value="" style="verticalLabelPosition=bottom;sketch=0;html=1;fillColor=#282828;strokeColor=none;verticalAlign=top;pointerEvents=1;align=center;shape=mxgraph.cisco_safe.technology_icons.icon10;" vertex="1" parent="1">
          <mxGeometry x="545" y="498" width="50" height="41" as="geometry" />
        </mxCell>
        <mxCell id="voTqLmx-ShP74qZ-SAfc-179" value="" style="sketch=0;verticalLabelPosition=bottom;sketch=0;aspect=fixed;html=1;verticalAlign=top;strokeColor=none;fillColor=#000000;align=center;outlineConnect=0;pointerEvents=1;shape=mxgraph.citrix2.authentication_adaptive;" vertex="1" parent="1">
          <mxGeometry x="338" y="112" width="50" height="50" as="geometry" />
        </mxCell>
        <mxCell id="voTqLmx-ShP74qZ-SAfc-180" value="" style="sketch=0;verticalLabelPosition=bottom;sketch=0;aspect=fixed;html=1;verticalAlign=top;strokeColor=none;fillColor=#000000;align=center;outlineConnect=0;pointerEvents=1;shape=mxgraph.citrix2.authentication_adaptive;" vertex="1" parent="1">
          <mxGeometry x="1025" y="118" width="50" height="50" as="geometry" />
        </mxCell>
        <mxCell id="voTqLmx-ShP74qZ-SAfc-181" value="" style="sketch=0;verticalLabelPosition=bottom;sketch=0;aspect=fixed;html=1;verticalAlign=top;strokeColor=none;fillColor=#000000;align=center;outlineConnect=0;pointerEvents=1;shape=mxgraph.citrix2.authentication_adaptive;" vertex="1" parent="1">
          <mxGeometry x="1020" y="304" width="50" height="50" as="geometry" />
        </mxCell>
        <mxCell id="voTqLmx-ShP74qZ-SAfc-182" value="" style="sketch=0;verticalLabelPosition=bottom;sketch=0;aspect=fixed;html=1;verticalAlign=top;strokeColor=none;fillColor=#000000;align=center;outlineConnect=0;pointerEvents=1;shape=mxgraph.citrix2.authentication_adaptive;" vertex="1" parent="1">
          <mxGeometry x="491" y="311" width="50" height="50" as="geometry" />
        </mxCell>
        <mxCell id="voTqLmx-ShP74qZ-SAfc-183" value="" style="sketch=0;verticalLabelPosition=bottom;sketch=0;aspect=fixed;html=1;verticalAlign=top;strokeColor=none;fillColor=#000000;align=center;outlineConnect=0;pointerEvents=1;shape=mxgraph.citrix2.authentication_adaptive;" vertex="1" parent="1">
          <mxGeometry x="340" y="489" width="50" height="50" as="geometry" />
        </mxCell>
        <mxCell id="voTqLmx-ShP74qZ-SAfc-184" value="" style="fontColor=#0066CC;verticalAlign=top;verticalLabelPosition=bottom;labelPosition=center;align=center;html=1;outlineConnect=0;fillColor=#CCCCCC;strokeColor=#6881B3;gradientColor=none;gradientDirection=north;strokeWidth=2;shape=mxgraph.networks.external_storage;" vertex="1" parent="1">
          <mxGeometry x="390" y="283" width="60" height="71" as="geometry" />
        </mxCell>
        <mxCell id="voTqLmx-ShP74qZ-SAfc-185" value="" style="fontColor=#0066CC;verticalAlign=top;verticalLabelPosition=bottom;labelPosition=center;align=center;html=1;outlineConnect=0;fillColor=#CCCCCC;strokeColor=#6881B3;gradientColor=none;gradientDirection=north;strokeWidth=2;shape=mxgraph.networks.external_storage;" vertex="1" parent="1">
          <mxGeometry x="410" y="101.5" width="60" height="71" as="geometry" />
        </mxCell>
        <mxCell id="voTqLmx-ShP74qZ-SAfc-186" value="" style="fontColor=#0066CC;verticalAlign=top;verticalLabelPosition=bottom;labelPosition=center;align=center;html=1;outlineConnect=0;fillColor=#CCCCCC;strokeColor=#6881B3;gradientColor=none;gradientDirection=north;strokeWidth=2;shape=mxgraph.networks.external_storage;" vertex="1" parent="1">
          <mxGeometry x="1120" y="107.5" width="60" height="71" as="geometry" />
        </mxCell>
        <mxCell id="voTqLmx-ShP74qZ-SAfc-187" value="" style="fontColor=#0066CC;verticalAlign=top;verticalLabelPosition=bottom;labelPosition=center;align=center;html=1;outlineConnect=0;fillColor=#CCCCCC;strokeColor=#6881B3;gradientColor=none;gradientDirection=north;strokeWidth=2;shape=mxgraph.networks.external_storage;" vertex="1" parent="1">
          <mxGeometry x="420" y="474" width="60" height="71" as="geometry" />
        </mxCell>
        <mxCell id="voTqLmx-ShP74qZ-SAfc-189" value="物联网" style="ellipse;shape=cloud;whiteSpace=wrap;html=1;shadow=0;strokeColor=#23445D;fillColor=#BAC8D3;gradientColor=none;fontSize=18;fontColor=#23445D;fontStyle=0;gradientDirection=north;strokeWidth=2;" vertex="1" parent="1">
          <mxGeometry x="30" y="330" width="120" height="80" as="geometry" />
        </mxCell>
        <mxCell id="voTqLmx-ShP74qZ-SAfc-190" style="edgeStyle=orthogonalEdgeStyle;rounded=0;html=1;startArrow=none;startFill=0;endArrow=none;endFill=0;fontSize=18;fontColor=#F08705;strokeColor=#23445D;strokeWidth=2;curved=1;fontStyle=0;entryX=0.96;entryY=0.7;entryDx=0;entryDy=0;entryPerimeter=0;exitX=0;exitY=0.5;exitDx=0;exitDy=0;" edge="1" parent="1" source="6" target="voTqLmx-ShP74qZ-SAfc-189">
          <mxGeometry relative="1" as="geometry">
            <mxPoint x="270" y="474" as="sourcePoint" />
            <mxPoint x="170" y="269" as="targetPoint" />
            <Array as="points">
              <mxPoint x="260" y="507" />
              <mxPoint x="260" y="420" />
              <mxPoint x="210" y="420" />
              <mxPoint x="210" y="400" />
              <mxPoint x="145" y="400" />
            </Array>
          </mxGeometry>
        </mxCell>
        <mxCell id="voTqLmx-ShP74qZ-SAfc-192" value="" style="fontColor=#0066CC;verticalAlign=top;verticalLabelPosition=bottom;labelPosition=center;align=center;html=1;outlineConnect=0;fillColor=#CCCCCC;strokeColor=#6881B3;gradientColor=none;gradientDirection=north;strokeWidth=2;shape=mxgraph.networks.external_storage;" vertex="1" parent="1">
          <mxGeometry x="1120" y="290" width="60" height="71" as="geometry" />
        </mxCell>
        <mxCell id="voTqLmx-ShP74qZ-SAfc-193" value="&lt;font style=&quot;font-size: 17px;&quot;&gt;录像机&lt;/font&gt;" style="text;html=1;align=center;verticalAlign=middle;whiteSpace=wrap;rounded=0;" vertex="1" parent="1">
          <mxGeometry x="1220" y="741" width="60" height="30" as="geometry" />
        </mxCell>
        <mxCell id="voTqLmx-ShP74qZ-SAfc-197" value="基地露天环境" style="rounded=1;whiteSpace=wrap;html=1;shadow=0;strokeColor=none;fillColor=#BAC8D3;gradientColor=none;fontSize=18;fontColor=#AE4132;verticalAlign=top;fontStyle=0;opacity=70;strokeWidth=3;" vertex="1" parent="1">
          <mxGeometry x="976.5" y="441.5" width="295" height="115" as="geometry" />
        </mxCell>
        <mxCell id="voTqLmx-ShP74qZ-SAfc-194" value="" style="fontColor=#0066CC;verticalAlign=top;verticalLabelPosition=bottom;labelPosition=center;align=center;html=1;outlineConnect=0;fillColor=#CCCCCC;strokeColor=#6881B3;gradientColor=none;gradientDirection=north;strokeWidth=2;shape=mxgraph.networks.external_storage;" vertex="1" parent="1">
          <mxGeometry x="1170" y="463.5" width="60" height="71" as="geometry" />
        </mxCell>
        <mxCell id="voTqLmx-ShP74qZ-SAfc-195" value="" style="sketch=0;verticalLabelPosition=bottom;sketch=0;aspect=fixed;html=1;verticalAlign=top;strokeColor=none;fillColor=#000000;align=center;outlineConnect=0;pointerEvents=1;shape=mxgraph.citrix2.authentication_adaptive;" vertex="1" parent="1">
          <mxGeometry x="1090" y="478.5" width="50" height="50" as="geometry" />
        </mxCell>
        <mxCell id="voTqLmx-ShP74qZ-SAfc-196" value="" style="verticalLabelPosition=bottom;sketch=0;html=1;fillColor=#282828;strokeColor=none;verticalAlign=top;pointerEvents=1;align=center;shape=mxgraph.cisco_safe.technology_icons.icon10;" vertex="1" parent="1">
          <mxGeometry x="1014" y="483" width="50" height="41" as="geometry" />
        </mxCell>
        <mxCell id="voTqLmx-ShP74qZ-SAfc-198" value="物联网" style="ellipse;shape=cloud;whiteSpace=wrap;html=1;shadow=0;strokeColor=#23445D;fillColor=#BAC8D3;gradientColor=none;fontSize=18;fontColor=#23445D;gradientDirection=north;fontStyle=0;strokeWidth=2;" vertex="1" parent="1">
          <mxGeometry x="1500" y="410" width="120" height="80" as="geometry" />
        </mxCell>
        <mxCell id="voTqLmx-ShP74qZ-SAfc-199" style="edgeStyle=orthogonalEdgeStyle;rounded=0;html=1;startArrow=none;startFill=0;endArrow=none;endFill=0;fontSize=18;fontColor=#F08705;strokeColor=#23445D;strokeWidth=2;curved=1;fontStyle=0;exitX=1;exitY=0.5;exitDx=0;exitDy=0;" edge="1" target="voTqLmx-ShP74qZ-SAfc-198" parent="1" source="voTqLmx-ShP74qZ-SAfc-197">
          <mxGeometry relative="1" as="geometry">
            <Array as="points">
              <mxPoint x="1271" y="512" />
              <mxPoint x="1424" y="512" />
              <mxPoint x="1424" y="450" />
            </Array>
            <mxPoint x="1220" y="512" as="sourcePoint" />
          </mxGeometry>
        </mxCell>
        <mxCell id="voTqLmx-ShP74qZ-SAfc-200" value="" style="edgeStyle=elbowEdgeStyle;strokeWidth=2;rounded=0;endArrow=none;startArrow=none;startSize=10;endSize=10;dashed=0;html=1;strokeColor=#23445D;fontSize=18;fontColor=#F08705;startFill=0;endFill=0;fontStyle=0;exitX=0.334;exitY=0.951;exitDx=0;exitDy=0;exitPerimeter=0;" edge="1" parent="1" source="voTqLmx-ShP74qZ-SAfc-196" target="48">
          <mxGeometry relative="1" as="geometry">
            <mxPoint x="760" y="554" as="sourcePoint" />
            <mxPoint x="760" y="594" as="targetPoint" />
            <Array as="points">
              <mxPoint x="1040" y="574" />
            </Array>
          </mxGeometry>
        </mxCell>
        <mxCell id="voTqLmx-ShP74qZ-SAfc-201" value="" style="verticalLabelPosition=bottom;sketch=0;aspect=fixed;html=1;verticalAlign=top;strokeColor=none;align=center;outlineConnect=0;shape=mxgraph.citrix.tablet_1;" vertex="1" parent="1">
          <mxGeometry x="50" y="498" width="61" height="79" as="geometry" />
        </mxCell>
      </root>
    </mxGraphModel>
  </diagram>
</mxfile>
